<?xml version="1.0" encoding="UTF-8" standalone="no"?>
<!-- Created with Inkscape (http://www.inkscape.org/) -->

<svg
   xmlns:dc="http://purl.org/dc/elements/1.1/"
   xmlns:cc="http://creativecommons.org/ns#"
   xmlns:rdf="http://www.w3.org/1999/02/22-rdf-syntax-ns#"
   xmlns:svg="http://www.w3.org/2000/svg"
   xmlns="http://www.w3.org/2000/svg"
   xmlns:sodipodi="http://sodipodi.sourceforge.net/DTD/sodipodi-0.dtd"
   xmlns:inkscape="http://www.inkscape.org/namespaces/inkscape"
   width="159.17072"
   height="194.48645"
   viewBox="0 0 42.113916 51.457875"
   version="1.1"
   id="svg4924"
   inkscape:version="0.92.3 (2405546, 2018-03-11)"
   sodipodi:docname="pinhuevo-invertido.svg">
  <defs
     id="defs4918" />
  <sodipodi:namedview
     id="base"
     pagecolor="#ffffff"
     bordercolor="#666666"
     borderopacity="1.0"
     inkscape:pageopacity="0.0"
     inkscape:pageshadow="2"
     inkscape:zoom="3.6010115"
     inkscape:cx="-78.782982"
     inkscape:cy="96.852865"
     inkscape:document-units="mm"
     inkscape:current-layer="layer1"
     showgrid="false"
     fit-margin-top="5"
     fit-margin-left="5"
     fit-margin-right="5"
     fit-margin-bottom="5"
     inkscape:window-width="2560"
     inkscape:window-height="1364"
     inkscape:window-x="0"
     inkscape:window-y="48"
     inkscape:window-maximized="1"
     units="px"
     inkscape:pagecheckerboard="true" />
  <metadata
     id="metadata4921">
    <rdf:RDF>
      <cc:Work
         rdf:about="">
        <dc:format>image/svg+xml</dc:format>
        <dc:type
           rdf:resource="http://purl.org/dc/dcmitype/StillImage" />
        <dc:title></dc:title>
      </cc:Work>
    </rdf:RDF>
  </metadata>
  <g
     inkscape:label="Layer 1"
     inkscape:groupmode="layer"
     id="layer1"
     transform="translate(-112.19304,-80.743198)">
    <g
       style="display:inline;fill:#ffffff"
       transform="matrix(1.3709118,0,0,1.3709118,-34.58477,-57.162855)"
       id="g5526">
      <path
         id="path66-8-5-3-8-9-5"
         style="font-style:normal;font-variant:normal;font-weight:600;font-stretch:normal;font-size:85.33333588px;line-height:1.25;font-family:Lato;-inkscape-font-specification:'Lato, Semi-Bold';font-variant-ligatures:normal;font-variant-caps:normal;font-variant-numeric:normal;font-feature-settings:normal;text-align:start;letter-spacing:0px;word-spacing:0px;writing-mode:lr-tb;text-anchor:start;fill:#ffffff;fill-opacity:1;stroke:none;stroke-width:0.41924617;stroke-opacity:1"
         d="m 136.82048,125.40162 c 0,1.59804 -0.34654,3.28092 -1.03963,4.72133 -0.69308,1.4404 -1.67273,2.68342 -2.93894,3.72904 -1.25288,1.03496 -2.76567,1.84585 -4.53837,2.43268 -1.75937,0.58683 -3.71866,0.88025 -5.87789,0.88025 -2.14589,0 -4.10519,-0.29342 -5.87789,-0.88025 -1.75937,-0.58683 -3.27216,-1.39772 -4.53837,-2.43268 -1.26621,-1.04562 -2.24586,-2.28864 -2.93894,-3.72904 -0.69309,-1.44041 -1.03963,-3.12329 -1.03963,-4.72133 0,-1.59803 0.61152,-3.16046 1.03963,-4.72132 0.51039,-1.86087 1.32174,-3.66379 1.82024,-5.52673 0.2391,-0.89353 0.50041,-1.90923 0.55997,-2.7045 0.0596,-0.79526 -2.27981,-0.85982 -1.98453,-1.55923 0.61496,-1.45655 3.55586,-1.80283 4.13934,-3.30603 0.58348,-1.5032 1.3528,-2.91402 2.71107,-4.00104 1.57682,-1.26193 3.98704,-2.18367 6.20487,-2.00004 2.26224,0.18731 4.17293,1.66579 5.67353,3.03386 2.30565,2.10204 3.40283,4.90849 4.64695,7.52255 1.31339,2.75958 2.12803,5.66031 2.93895,8.54116 0.43882,1.55895 1.03963,3.12329 1.03963,4.72132 z m -5.58829,-0.23158 c -0.0625,-1.32928 -0.46404,-2.63603 -0.79548,-3.93953 -0.58216,-2.28948 -1.15673,-4.59314 -2.09289,-6.80612 -0.91478,-2.16246 -1.53874,-4.56365 -3.42369,-6.27702 -0.79818,-0.72552 -1.90314,-1.46497 -3.11051,-1.48716 -1.22782,-0.0226 -2.46939,0.63329 -3.2466,1.39453 -2.03082,1.98911 -1.96992,4.89303 -2.77221,7.38039 -0.68637,2.12795 -1.31477,4.27302 -1.74336,6.44381 -0.23317,1.18101 -0.54388,2.37579 -0.44832,3.569 0.0968,1.20849 0.4162,2.43078 1.0269,3.53869 0.50146,0.90971 1.20737,1.77652 2.11288,2.45717 0.82815,0.6225 1.84353,1.11968 2.92319,1.40257 0.87925,0.23038 1.83906,0.23371 2.76355,0.20563 1.42924,-0.0434 2.91559,-0.12474 4.23,-0.57616 0.95552,-0.32816 1.82514,-0.86078 2.49819,-1.4952 0.81678,-0.76991 1.39436,-1.71863 1.74574,-2.68876 0.36331,-1.00308 0.38163,-2.07818 0.33261,-3.12184 z"
         inkscape:connector-curvature="0"
         sodipodi:nodetypes="scccscccaaassssaaaaasaaaaaaaaaaaaaaaaa" />
      <path
         id="path21"
         d="m 120.64186,109.34791 c 0.63801,-0.004 1.29056,0.37242 1.24286,0.71549 -0.0425,0.3053 -0.57513,0.47895 -0.9285,0.30268 -0.21744,-0.10842 -0.53488,-0.0426 -1.02983,0.21355 -0.58001,0.30021 -0.75037,0.32119 -0.89957,0.11095 -0.12944,-0.1824 -0.0457,-0.40505 0.28203,-0.75015 0.55726,-0.58676 0.56121,-0.58851 1.33307,-0.59232 z"
         style="fill:#ffffff;stroke-width:0.17616937"
         inkscape:connector-curvature="0" />
    </g>
  </g>
</svg>
